<svg    xmlns:dc="http://purl.org/dc/elements/1.1/"    xmlns:cc="http://creativecommons.org/ns#"    xmlns:rdf="http://www.w3.org/1999/02/22-rdf-syntax-ns#"    xmlns:svg="http://www.w3.org/2000/svg"    xmlns="http://www.w3.org/2000/svg"    viewBox="0 0 494.81332 78.160004"    height="78.160004"    width="494.81332"    xml:space="preserve"    id="svg2"    version="1.1"><metadata      id="metadata8"><rdf:RDF><cc:Work          rdf:about=""><dc:format>image/svg+xml</dc:format><dc:type            rdf:resource="http://purl.org/dc/dcmitype/StillImage" /></cc:Work></rdf:RDF></metadata><defs      id="defs6"><clipPath        id="clipPath20"        clipPathUnits="userSpaceOnUse"><path          id="path18"          d="M 0,0 H 3710 V 586 H 0 Z" /></clipPath></defs><g      transform="matrix(1.3333333,0,0,-1.3333333,0,78.16)"      id="g10"><g        transform="scale(0.1)"        id="g12"><g          id="g14"><g            clip-path="url(#clipPath20)"            id="g16"><path              id="path22"              style="fill:#a20641;fill-opacity:1;fill-rule:nonzero;stroke:none"              d="m 1747.52,527.906 c 25.55,0 35.72,-2.199 43.41,-5.222 19.51,-7.688 31.05,-24.731 31.05,-45.336 0,-24.18 -15.39,-42.032 -44.79,-47.254 v -0.547 c 16.49,-4.953 26.11,-18.41 38.19,-35.996 l 1.38,-1.641 17.58,-27.207 c 0,-0.273 0.55,-0.828 0.83,-1.367 14.83,-23.633 25.83,-28.301 35.44,-30.227 v -2.754 h -46.71 c -2.75,3.301 -5.22,5.774 -8.79,11.27 -1.1,1.379 -5.22,7.141 -5.77,7.695 -0.28,0.547 -0.55,1.094 -0.82,1.368 l -26.38,40.117 c -0.27,0.273 -0.27,0.547 -1.38,2.199 -0.27,0.547 -12.91,20.879 -25.55,27.207 -5.22,2.461 -9.89,3.836 -23.63,4.383 v -68.406 c 0,-16.485 8.52,-23.079 22.26,-23.079 v -2.754 h -74.19 v 2.754 c 15.12,0 22.26,7.141 22.26,22.52 v 146.457 c 0,21.699 -14.29,23.074 -22.53,23.074 v 2.746 z m -15.94,-95.89 c 24.46,0 58.8,1.652 58.8,43.136 0,14.289 -6.32,45.344 -42.04,45.344 -4.94,0 -12.36,0 -16.76,-1.664 v -86.816" /><path              id="path24"              style="fill:#a20641;fill-opacity:1;fill-rule:nonzero;stroke:none"              d="m 1954.72,330.355 h -73.92 v 2.754 c 8.24,0.266 22.26,1.379 22.26,22.52 v 147.277 c 0,20.606 -13.74,21.711 -22.26,22.254 v 2.746 h 73.92 v -2.746 c -8.25,-0.543 -22.26,-1.648 -22.26,-22.254 V 355.629 c 0,-21.426 14.01,-22.254 22.26,-22.52 v -2.754" /><path              id="path26"              style="fill:#a20641;fill-opacity:1;fill-rule:nonzero;stroke:none"              d="M 2150.09,527.906 2016.28,338.875 h 77.48 c 48.35,0 55.5,20.613 59.62,33.25 h 2.75 l -6.04,-41.77 h -172.56 v 4.133 l 132.99,183.524 h -89.3 c -25,0 -37.64,-4.938 -40.66,-27.469 h -3.03 v 37.363 h 172.56" /><path              id="path28"              style="fill:#a20641;fill-opacity:1;fill-rule:nonzero;stroke:none"              d="m 2266.61,532.582 c 53.58,0 104.95,-39.84 104.95,-103.867 0,-56.043 -42.3,-103.301 -103.3,-103.301 -57.42,0 -105.51,43.41 -105.51,102.754 0,60.453 48.91,104.414 103.86,104.414 z m 3.58,-199.746 c 42.3,0 66.21,39.289 66.21,91.496 0,62.09 -32.7,102.207 -73.64,102.207 -25.28,0 -65.39,-17.59 -65.39,-92.598 0,-55.5 25.56,-101.105 72.82,-101.105" /><path              id="path30"              style="fill:#a20641;fill-opacity:1;fill-rule:nonzero;stroke:none"              d="m 2557.89,376.52 v 126.386 c 0,20.332 -13.75,21.711 -22.54,22.254 v 2.746 h 54.68 v -2.746 c -9.06,-0.543 -22.53,-1.922 -22.53,-22.254 V 325.414 h -3.3 L 2417.76,490.258 V 355.629 c 0,-21.426 14.01,-22.254 22.26,-22.52 v -2.754 h -54.13 v 2.754 c 8.24,0.266 22.25,1.379 22.25,22.52 v 145.078 l -7.69,8.793 c -0.27,0.27 -0.82,0.543 -1.09,1.09 -11.55,13.469 -19.52,14.027 -25.56,14.57 v 2.746 h 48.36 L 2557.89,376.52" /><path              id="path32"              style="fill:#a20641;fill-opacity:1;fill-rule:nonzero;stroke:none"              d="m 2748.88,363.875 c 8.79,-25.824 18.4,-29.125 30.22,-30.766 v -2.754 h -76.66 v 2.754 c 6.32,0.266 19.79,0.547 19.79,14.836 0,2.469 -0.29,5.496 -3.3,14.285 l -16.49,48.633 h -63.47 l -14.57,-45.332 c -2.18,-6.601 -3.29,-13.465 -3.29,-16.492 0,-14.836 11.82,-15.664 16.49,-15.93 v -2.754 h -52.76 v 2.754 c 16.21,1.094 23.91,14.278 28.03,26.926 l 54.4,170.625 h 24.46 z m -106.89,56.598 h 57.15 l -29.12,86.281 h -0.55 l -27.48,-86.281" /><path              id="path34"              style="fill:#a20641;fill-opacity:1;fill-rule:nonzero;stroke:none"              d="m 2985.65,528.227 c -5.19,28.117 -23.25,48.605 -54.15,48.605 -29.15,0 -44.08,-20.488 -44.08,-40.965 0,-27.074 24.99,-44.086 51.03,-60.402 35.76,-22.559 64.57,-39.922 64.57,-79.844 0,-15.625 -4.17,-34.707 -22.91,-52.07 -17.01,-15.969 -33.67,-19.434 -54.16,-19.434 -16.65,0 -29.5,3.465 -38.88,7.285 -14.23,5.899 -15.97,6.602 -19.78,6.602 -3.82,0 -9.37,-1.75 -10.07,-10.422 h -3.47 l 2.77,63.879 h 3.47 c 1.4,-9.375 4.86,-28.82 22.91,-43.047 11.11,-8.684 29.16,-14.582 43.05,-14.582 24.66,0 45.48,19.445 45.48,44.082 0,25 -19.1,41.309 -53.46,62.492 -29.5,18.387 -59.37,37.137 -59.37,78.797 0,30.207 20.83,66.652 72.55,66.652 11.47,0 24.31,-1.738 33.68,-4.863 4.17,-1.387 10.41,-3.125 14.23,-3.125 0.34,0 7.64,0.352 9.38,8.34 h 3.46 l -2.77,-57.98 h -3.48" /><path              id="path36"              style="fill:#a20641;fill-opacity:1;fill-rule:nonzero;stroke:none"              d="m 3199.95,489.164 h -2.75 c -2.19,25.547 -23.63,27.473 -38.19,27.473 h -33.24 V 355.629 c 0,-21.426 14.01,-22.254 22.53,-22.52 v -2.754 h -74.46 v 2.754 c 8.8,0.266 22.53,1.641 22.53,22.52 v 161.008 h -33.25 c -15.93,0 -35.16,-1.926 -38.19,-27.473 h -2.74 v 47.805 h 2.74 c 1.1,-3.293 2.47,-4.387 6.59,-6.309 4.12,-1.926 19.52,-2.754 25.29,-2.754 h 108.52 c 17.86,0 21.98,1.094 25.82,2.196 4.12,1.105 5.5,4.398 6.05,6.867 h 2.75 v -47.805" /><path              id="path38"              style="fill:#a20641;fill-opacity:1;fill-rule:nonzero;stroke:none"              d="m 3354.11,363.875 c 8.8,-25.824 18.41,-29.125 30.24,-30.766 v -2.754 h -76.66 v 2.754 c 6.31,0.266 19.78,0.547 19.78,14.836 0,2.469 -0.28,5.496 -3.3,14.285 l -16.48,48.633 h -63.47 l -14.57,-45.332 c -2.2,-6.601 -3.29,-13.465 -3.29,-16.492 0,-14.836 11.81,-15.664 16.48,-15.93 v -2.754 h -52.75 v 2.754 c 16.21,1.094 23.89,14.278 28.03,26.926 l 54.4,170.625 h 24.45 z m -106.87,56.598 h 57.14 l -29.12,86.281 h -0.54 l -27.48,-86.281" /><path              id="path40"              style="fill:#a20641;fill-opacity:1;fill-rule:nonzero;stroke:none"              d="m 3553.61,489.164 h -2.74 c -2.2,25.547 -23.63,27.473 -38.18,27.473 h -33.26 V 355.629 c 0,-21.426 14.02,-22.254 22.54,-22.52 v -2.754 h -74.46 v 2.754 c 8.79,0.266 22.53,1.641 22.53,22.52 v 161.008 h -33.24 c -15.94,0 -35.17,-1.926 -38.2,-27.473 h -2.75 v 47.805 h 2.75 c 1.1,-3.293 2.47,-4.387 6.6,-6.309 4.12,-1.926 19.5,-2.754 25.28,-2.754 h 108.51 c 17.87,0 21.99,1.094 25.84,2.196 4.12,1.105 5.49,4.398 6.04,6.867 h 2.74 v -47.805" /><path              id="path42"              style="fill:#a20641;fill-opacity:1;fill-rule:nonzero;stroke:none"              d="m 3666.02,433.395 c 4.95,0 25.28,0 26.93,20.332 h 2.74 v -48.633 h -2.74 c -1.09,13.457 -10.17,20.879 -25.01,20.879 h -39 v -66.77 c 0,-8.242 -0.29,-21.426 20.33,-21.426 h 26.37 c 18.68,0 27.75,6.047 32.7,24.453 h 2.74 l -5.77,-31.875 H 3577 v 2.754 c 8.24,0 22.53,0.821 22.53,23.079 v 145.898 c 0,2.195 0.27,23.074 -19.77,23.074 H 3577 v 2.746 h 128.31 v -32.148 h -2.75 c 0,18.406 -10.44,24.738 -26.92,24.738 h -46.7 v -87.101 h 37.08" /><path              id="path44"              style="fill:#a20641;fill-opacity:1;fill-rule:nonzero;stroke:none"              d="m 1617.01,47.9883 h -0.7 c -7.29,-14.9219 -30.2,-46.52346 -78.1,-46.52346 -32.63,0 -88.18,16.66016 -88.18,94.43356 V 221.914 c 0,26.367 -17.01,28.457 -28.46,29.16 v 3.457 h 93.73 v -3.457 c -11.46,-0.703 -28.12,-2.793 -28.12,-29.16 V 97.2852 c 0,-13.8868 1.38,-28.125 6.59,-40.9571 9.72,-23.6133 32.64,-36.4453 56.24,-36.4453 26.38,0 47.21,15.2539 56.93,29.8438 9.37,14.2382 9.72,34.3554 9.72,41.6601 V 221.914 c 0,26.367 -17.01,28.457 -28.47,29.16 v 3.457 h 94.08 v -3.457 c -11.8,-0.703 -28.47,-2.793 -28.47,-29.16 V 36.875 c 0,-26.0352 17.02,-28.10547 28.47,-28.45703 V 4.94141 h -65.26 V 47.9883" /><path              id="path46"              style="fill:#a20641;fill-opacity:1;fill-rule:nonzero;stroke:none"              d="M 1882.07,51.0938 V 177.5 c 0,20.332 -13.75,21.699 -22.54,22.246 v 2.754 h 54.68 v -2.754 c -9.07,-0.547 -22.53,-1.914 -22.53,-22.246 V 0 h -3.3 L 1741.94,164.844 V 30.2148 c 0,-21.42574 14.01,-22.24605 22.25,-22.51949 v -2.7539 h -54.12 v 2.7539 c 8.24,0.27344 22.25,1.36719 22.25,22.51949 V 175.293 l -7.69,8.789 c -0.27,0.273 -0.83,0.547 -1.1,1.094 -11.54,13.476 -19.51,14.023 -25.55,14.57 v 2.754 h 48.35 L 1882.07,51.0938" /><path              id="path48"              style="fill:#a20641;fill-opacity:1;fill-rule:nonzero;stroke:none"              d="m 2013.43,4.94141 h -73.91 v 2.7539 c 8.24,0.27344 22.26,1.36719 22.26,22.51949 V 177.5 c 0,20.586 -13.74,21.699 -22.26,22.246 v 2.754 h 73.91 v -2.754 c -8.24,-0.547 -22.26,-1.66 -22.26,-22.246 V 30.2148 c 0,-21.42574 14.02,-22.24605 22.26,-22.51949 v -2.7539" /><path              id="path50"              style="fill:#a20641;fill-opacity:1;fill-rule:nonzero;stroke:none"              d="m 2106.86,202.5 v -2.754 c -5.49,0 -19.51,0 -19.51,-15.937 0,-6.875 5.77,-21.426 6.05,-21.973 l 43.95,-110.4688 37.92,110.4688 c 0,0 0.55,1.914 0.83,2.187 2.46,6.875 4.39,16.758 4.39,20.332 0,14.571 -12.09,15.118 -18.14,15.391 v 2.754 h 56.88 v -2.754 c -9.06,-0.82 -19.78,-3.301 -29.67,-28.848 -0.55,-1.113 -3.29,-8.515 -3.57,-9.062 L 2129.11,0 h -2.19 l -69.52,172.266 c -0.27,0.82 -0.54,1.66 -1.1,2.207 0,0.273 -0.55,1.367 -1.09,2.461 -5.49,11.269 -9.61,20.058 -26.93,22.812 v 2.754 h 78.58" /><path              id="path52"              style="fill:#a20641;fill-opacity:1;fill-rule:nonzero;stroke:none"              d="m 2325.87,107.969 c 4.94,0 25.27,0 26.92,20.332 h 2.76 V 79.668 h -2.76 c -1.1,13.4765 -10.16,20.879 -25.01,20.879 h -39.01 V 33.7891 c 0,-8.2422 -0.26,-21.4258 20.33,-21.4258 h 26.38 c 18.69,0 27.75,6.0547 32.7,24.4531 h 2.75 l -5.77,-31.87499 h -128.31 v 2.7539 c 8.24,0 22.53,0.82031 22.53,23.06639 V 176.66 c 0,2.207 0.27,23.086 -19.78,23.086 h -2.75 v 2.754 h 128.31 v -32.148 h -2.76 c 0,18.398 -10.43,24.726 -26.92,24.726 h -46.71 v -87.109 h 37.1" /><path              id="path54"              style="fill:#a20641;fill-opacity:1;fill-rule:nonzero;stroke:none"              d="m 2469.31,202.5 c 25.55,0 35.72,-2.207 43.41,-5.234 19.51,-7.676 31.05,-24.727 31.05,-45.332 0,-24.18 -15.38,-42.032 -44.79,-47.246 v -0.567 c 16.49,-4.9413 26.11,-18.3983 38.2,-35.9765 l 1.37,-1.6601 17.58,-27.1875 c 0,-0.293 0.55,-0.8399 0.83,-1.3867 14.84,-23.6133 25.82,-28.30082 35.44,-30.21489 v -2.7539 h -46.71 c -2.75,3.30078 -5.21,5.78129 -8.8,11.26949 -1.09,1.3672 -5.21,7.1485 -5.76,7.6953 -0.27,0.5469 -0.54,1.0938 -0.82,1.3672 l -26.37,40.1172 c -0.29,0.2735 -0.29,0.5469 -1.38,2.1875 -0.27,0.5664 -12.92,20.8985 -25.55,27.2071 -5.23,2.4804 -9.9,3.8476 -23.63,4.3945 v -68.418 c 0,-16.4648 8.51,-23.06639 22.25,-23.06639 v -2.7539 h -74.18 v 2.7539 c 15.11,0 22.25,7.14849 22.25,22.51949 V 176.66 c 0,21.719 -14.29,23.086 -22.53,23.086 v 2.754 z m -15.93,-95.898 c 24.44,0 58.8,1.64 58.8,43.144 0,14.277 -6.33,45.332 -42.04,45.332 -4.95,0 -12.37,0 -16.76,-1.66 v -86.816" /><path              id="path56"              style="fill:#a20641;fill-opacity:1;fill-rule:nonzero;stroke:none"              d="m 2711.94,161.543 c -4.12,22.266 -18.4,38.477 -42.85,38.477 -23.08,0 -34.9,-16.211 -34.9,-32.422 0,-21.426 19.78,-34.883 40.39,-47.813 28.3,-17.851 51.1,-31.5819 51.1,-63.1834 0,-12.3633 -3.29,-27.4805 -18.13,-41.211 C 2694.09,2.75391 2680.9,0 2664.69,0 c -13.19,0 -23.35,2.75391 -30.77,5.76172 -11.27,4.68748 -12.64,5.23438 -15.66,5.23438 -3.03,0 -7.42,-1.38672 -7.98,-8.24219 h -2.74 l 2.2,50.54689 h 2.74 c 1.1,-7.4219 3.86,-22.793 18.14,-34.0625 8.79,-6.875 23.08,-11.54299 34.07,-11.54299 19.51,0 35.99,15.39059 35.99,34.88279 0,19.7852 -15.11,32.7149 -42.31,49.4727 -23.35,14.5512 -46.98,29.3942 -46.98,62.3632 0,23.906 16.48,52.754 57.42,52.754 9.07,0 19.24,-1.367 26.66,-3.848 3.29,-1.113 8.24,-2.48 11.26,-2.48 0.27,0 6.04,0.273 7.41,6.601 h 2.75 l -2.19,-45.898 h -2.76" /><path              id="path58"              style="fill:#a20641;fill-opacity:1;fill-rule:nonzero;stroke:none"              d="m 2836.15,4.94141 h -73.89 v 2.7539 c 8.23,0.27344 22.25,1.36719 22.25,22.51949 V 177.5 c 0,20.586 -13.74,21.699 -22.25,22.246 v 2.754 h 73.89 v -2.754 c -8.23,-0.547 -22.24,-1.66 -22.24,-22.246 V 30.2148 c 0,-21.42574 14.01,-22.24605 22.24,-22.51949 v -2.7539" /><path              id="path60"              style="fill:#a20641;fill-opacity:1;fill-rule:nonzero;stroke:none"              d="m 3041.42,163.75 h -2.75 c -2.2,25.547 -23.62,27.48 -38.19,27.48 h -33.24 V 30.2148 c 0,-21.42574 14,-22.24605 22.53,-22.51949 v -2.7539 h -74.46 v 2.7539 c 8.79,0.27344 22.53,1.64063 22.53,22.51949 V 191.23 h -33.25 c -15.94,0 -35.17,-1.933 -38.19,-27.48 h -2.75 v 47.812 h 2.75 c 1.1,-3.3 2.48,-4.394 6.59,-6.328 4.12,-1.914 19.51,-2.734 25.28,-2.734 h 108.53 c 17.86,0 21.98,1.094 25.83,2.188 4.12,1.113 5.49,4.394 6.04,6.874 h 2.75 V 163.75" /><path              id="path62"              style="fill:#a20641;fill-opacity:1;fill-rule:nonzero;stroke:none"              d="m 3130.19,202.5 v -2.754 c -4.95,0 -15.93,0 -15.93,-10.996 0,-4.941 4.12,-11.543 6.59,-15.664 l 35.17,-55.488 32.96,50.273 c 0,0 0.55,0.547 0.83,1.094 4.96,7.422 9.08,15.937 9.08,20.625 0,9.336 -12.09,9.883 -16.5,10.156 v 2.754 h 59.63 v -2.754 c -6.33,-0.547 -11.82,-1.094 -17.04,-4.121 -9.88,-5.781 -23.35,-25.84 -24.17,-27.207 l -40.66,-62.363 V 30.2148 c 0,-20.60542 9.88,-22.51949 22.24,-22.51949 v -2.7539 h -73.9 v 2.7539 c 9.33,0 22.25,1.91407 22.25,22.51949 v 74.4732 l -45.34,70.332 c 0,0.273 -0.55,0.82 -0.81,1.093 -0.28,0.547 -0.83,1.387 -6.33,9.063 -4.12,5.781 -12.36,14.57 -27.48,14.57 v 2.754 h 79.41" /><path              id="path64"              style="fill:#a20641;fill-opacity:1;fill-rule:nonzero;stroke:none"              d="m 1628.7,372.711 -72.2,210.715 -60.91,0.047 v -3.348 c 11.05,-0.664 26.87,-5.695 22.75,-21.203 l -61.47,-191.074 c -5.21,-15.969 -14.93,-32.629 -35.41,-34.016 v -3.477 h 66.65 v 3.477 c -5.9,0.344 -20.82,1.387 -20.82,20.129 0,3.828 1.38,12.5 4.16,20.828 l 18.4,57.285 h 80.18 l 20.83,-61.445 c 3.82,-11.113 4.17,-14.93 4.17,-18.047 0,-18.055 -17.01,-18.406 -25,-18.75 v -3.477 h 96.86 v 3.477 c -14.93,2.082 -27.08,6.25 -38.19,38.879 z m -135.03,71.504 34.71,109.004 h 0.69 l 36.8,-109.004 h -72.2" /><path              id="path66"              style="fill:#a20641;fill-opacity:1;fill-rule:nonzero;stroke:none"              d="m 1364.02,8.19922 c 0,0 -9.51,10.57418 -25.31,27.49998 -19.63,21.0039 -18.51,43.2422 -18.51,43.2422 V 581.32 H 1129.26 V 179.555 c -2.37,-38.067 -39.65,-47.782 -60.33,-47.117 -29.63,0.925 -46.76,17.48 -46.76,45.917 l -0.04,402.809 H 836.168 l -0.039,0.156 c -43.477,0 -77.617,-0.168 -131.035,-0.168 -101.739,0 -197.817,-15.562 -230.192,-99.949 l -19.214,74.817 c -4.719,14.687 -20.786,25.281 -36.629,25.281 H 394.082 L 145.293,581.285 H 86.5234 c -4.7695,0 -6.5039,-1.504 -4,-4.887 0,0 9,-8.64 25.3476,-27.265 22.707,-25.86 13.781,-60.465 13.781,-60.465 L 0,3.32422 H 177.145 L 202.695,109.957 H 373.656 L 400.316,3.32422 h 182.043 c 17.848,-0.00781 36.036,-0.00781 51.297,-0.00781 95.715,0 173.586,9.75389 212.102,69.35549 28.711,-54.3281 90.488,-79.88284 199.492,-70.48831 37.95,3.26172 75.26,21.01561 91.27,49.14841 l 7.35,-23.3867 c 6.38,-14.1133 19.35,-24.54296 37.85,-24.54296 h 178.32 c 4.76,0 6.5,1.40625 3.98,4.79688 z M 229.156,215.27 288.199,452.523 347.559,215.27 H 229.156" /><path              id="path68"              style="fill:#fbbf16;fill-opacity:1;fill-rule:nonzero;stroke:none"              d="m 433.578,473.887 -0.047,-0.043 -0.355,-0.371 -0.11,-0.11 0.114,-0.105 0.375,-0.348 32.715,-30.348 0.703,-0.652 0.215,-0.195 0.035,0.289 0.132,0.949 c 0.688,5.086 1.594,10.192 2.696,15.188 l 0.078,0.347 0.019,0.106 -0.093,0.054 -0.309,0.184 -31.637,19.148 -0.351,0.208 -0.106,0.07 -0.082,-0.094 -0.281,-0.309 -0.043,-0.046 -0.258,-0.289 0.387,0.039 0.672,0.066 0.383,0.035 -0.309,0.231 c -1.402,1.054 -3.613,0.843 -4.828,-0.453 -0.605,-0.645 -0.914,-1.516 -0.84,-2.383 0.078,-0.856 0.5,-1.617 1.199,-2.141 l 0.266,-0.199 -0.027,0.332 -0.051,0.746 -0.028,0.332 -0.234,-0.238" /><path              id="path70"              style="fill:none;stroke:#fbbf16;stroke-width:3;stroke-linecap:butt;stroke-linejoin:miter;stroke-miterlimit:4;stroke-dasharray:none;stroke-opacity:1"              d="m 433.578,473.887 -0.047,-0.043 -0.355,-0.371 -0.11,-0.11 0.114,-0.105 0.375,-0.348 32.715,-30.348 0.703,-0.652 0.215,-0.195 0.035,0.289 0.132,0.949 c 0.688,5.086 1.594,10.192 2.696,15.188 l 0.078,0.347 0.019,0.106 -0.093,0.054 -0.309,0.184 -31.637,19.148 -0.351,0.208 -0.106,0.07 -0.082,-0.094 -0.281,-0.309 -0.043,-0.046 -0.258,-0.289 0.387,0.039 0.672,0.066 0.383,0.035 -0.309,0.231 c -1.402,1.054 -3.613,0.843 -4.828,-0.453 -0.605,-0.645 -0.914,-1.516 -0.84,-2.383 0.078,-0.856 0.5,-1.617 1.199,-2.141 l 0.266,-0.199 -0.027,0.332 -0.051,0.746 -0.028,0.332 z" /><path              id="path72"              style="fill:#fbbf16;fill-opacity:1;fill-rule:nonzero;stroke:none"              d="m 401.871,432.543 -0.035,-0.047 -0.281,-0.426 -0.086,-0.125 0.129,-0.086 0.425,-0.273 63.364,-41.238 0.883,-0.571 0.265,-0.172 -0.035,0.313 -0.113,1.043 c -0.703,6.613 -1.059,13.484 -1.059,20.43 0,0.285 0.004,0.574 0.008,0.851 l 0.012,0.723 0.004,0.347 h -0.301 l 0.062,0.122 0.125,0.023 c -0.019,0.004 -0.168,0.063 -0.3,0.117 l -59.379,23.723 -0.403,0.16 -0.117,0.047 -0.066,-0.109 -0.223,-0.372 -0.027,-0.054 -0.192,-0.328 0.364,0.109 0.656,0.188 0.363,0.105 -0.332,0.176 c -1.582,0.82 -3.727,0.261 -4.68,-1.211 -0.461,-0.723 -0.605,-1.613 -0.382,-2.438 0.226,-0.851 0.792,-1.547 1.593,-1.965 l 0.301,-0.148 -0.09,0.32 -0.183,0.723 -0.086,0.328 -0.184,-0.285" /><path              id="path74"              style="fill:none;stroke:#fbbf16;stroke-width:3;stroke-linecap:butt;stroke-linejoin:miter;stroke-miterlimit:4;stroke-dasharray:none;stroke-opacity:1"              d="m 401.871,432.543 -0.035,-0.047 -0.281,-0.426 -0.086,-0.125 0.129,-0.086 0.425,-0.273 63.364,-41.238 0.883,-0.571 0.265,-0.172 -0.035,0.313 -0.113,1.043 c -0.703,6.613 -1.059,13.484 -1.059,20.43 0,0.285 0.004,0.574 0.008,0.851 l 0.012,0.723 0.004,0.347 h -0.301 l 0.062,0.122 0.125,0.023 c -0.019,0.004 -0.168,0.063 -0.3,0.117 l -59.379,23.723 -0.403,0.16 -0.117,0.047 -0.066,-0.109 -0.223,-0.372 -0.027,-0.054 -0.192,-0.328 0.364,0.109 0.656,0.188 0.363,0.105 -0.332,0.176 c -1.582,0.82 -3.727,0.261 -4.68,-1.211 -0.461,-0.723 -0.605,-1.613 -0.382,-2.438 0.226,-0.851 0.792,-1.547 1.593,-1.965 l 0.301,-0.148 -0.09,0.32 -0.183,0.723 -0.086,0.328 z" /><path              id="path76"              style="fill:#fbbf16;fill-opacity:1;fill-rule:nonzero;stroke:none"              d="m 378.664,386.91 -0.027,-0.058 -0.215,-0.461 -0.063,-0.137 0.141,-0.063 0.465,-0.203 99.547,-43.484 1.226,-0.531 0.364,-0.164 -0.168,0.363 -0.579,1.207 c -4.222,8.898 -7.535,18.547 -9.843,28.683 l -0.074,0.305 -0.02,0.094 -0.09,0.019 -0.308,0.071 -87.637,19.617 -0.43,0.094 -0.129,0.027 -0.047,-0.121 -0.152,-0.41 -0.02,-0.063 -0.125,-0.347 0.332,0.16 0.626,0.304 0.332,0.161 -0.352,0.117 c -1.727,0.562 -3.73,-0.328 -4.387,-1.942 -0.316,-0.777 -0.293,-1.632 0.071,-2.414 0.371,-0.8 1.082,-1.425 1.953,-1.714 l 0.316,-0.102 -0.137,0.309 -0.296,0.683 -0.137,0.309 -0.137,-0.309" /><path              id="path78"              style="fill:none;stroke:#fbbf16;stroke-width:3;stroke-linecap:butt;stroke-linejoin:miter;stroke-miterlimit:4;stroke-dasharray:none;stroke-opacity:1"              d="m 378.664,386.91 -0.027,-0.058 -0.215,-0.461 -0.063,-0.137 0.141,-0.063 0.465,-0.203 99.547,-43.484 1.226,-0.531 0.364,-0.164 -0.168,0.363 -0.579,1.207 c -4.222,8.898 -7.535,18.547 -9.843,28.683 l -0.074,0.305 -0.02,0.094 -0.09,0.019 -0.308,0.071 -87.637,19.617 -0.43,0.094 -0.129,0.027 -0.047,-0.121 -0.152,-0.41 -0.02,-0.063 -0.125,-0.347 0.332,0.16 0.626,0.304 0.332,0.161 -0.352,0.117 c -1.727,0.562 -3.73,-0.328 -4.387,-1.942 -0.316,-0.777 -0.293,-1.632 0.071,-2.414 0.371,-0.8 1.082,-1.425 1.953,-1.714 l 0.316,-0.102 -0.137,0.309 -0.296,0.683 -0.137,0.309 z" /><path              id="path80"              style="fill:#fbbf16;fill-opacity:1;fill-rule:nonzero;stroke:none"              d="m 731.422,165.523 c 0,41.434 -46.442,57.383 -100.219,75.852 -55.406,19.031 -118.203,40.594 -148.215,94.93 l -0.133,0.238 -0.039,0.074 -0.082,0.004 -0.273,0.02 -116.141,7.32 -0.445,0.023 -0.137,0.012 -0.019,-0.133 -0.078,-0.433 -0.016,-0.067 -0.063,-0.359 0.297,0.215 0.571,0.406 0.3,0.207 -0.363,0.059 c -1.812,0.285 -3.629,-0.911 -3.961,-2.618 -0.16,-0.804 0.02,-1.632 0.508,-2.332 0.52,-0.746 1.344,-1.25 2.254,-1.398 l 0.34,-0.051 -0.192,0.285 -0.41,0.606 -0.195,0.285 -0.07,-0.336 -0.016,-0.066 -0.113,-0.473 -0.028,-0.141 0.141,-0.035 0.469,-0.121 116.718,-29.961 0.043,-0.012 0.012,-0.003 h 0.012 l 0.047,-0.004 c 0.336,-0.024 0.636,-0.176 0.84,-0.411 0.148,-0.187 0.222,-0.41 0.203,-0.628 -0.055,-0.52 -0.61,-1.055 -1.285,-1.004 0.007,0 -0.039,0.007 -0.039,0.007 h -0.028 l -0.043,-0.007 c 0.004,0 -120.75,-11.328 -120.75,-11.328 l -0.472,-0.047 -0.137,-0.012 0.004,-0.145 0.015,-0.468 v -0.071 l 0.016,-0.34 0.242,0.254 0.504,0.508 0.246,0.254 h -0.351 c -1.856,0 -3.418,-1.465 -3.418,-3.215 0,-0.82 0.332,-1.59 0.941,-2.207 0.645,-0.644 1.547,-1.015 2.477,-1.015 h 0.351 l -0.246,0.254 -0.504,0.519 -0.242,0.254 -0.016,-0.352 v -0.07 l -0.015,-0.469 -0.004,-0.136 0.137,-0.02 0.472,-0.039 120.594,-11.328 h 0.043 l 0.008,-0.008 0.015,0.008 h 0.043 c 0.641,0.058 1.203,-0.352 1.258,-0.887 0.027,-0.285 -0.074,-0.586 -0.269,-0.832 -0.18,-0.215 -0.426,-0.34 -0.696,-0.359 l -0.043,-0.012 h -0.023 l -0.043,-0.008 -116.641,-29.933 -0.465,-0.118 -0.14,-0.027 0.027,-0.148 0.098,-0.469 0.015,-0.059 0.075,-0.34 0.195,0.282 0.414,0.597 0.195,0.293 -0.347,-0.058 c -0.907,-0.149 -1.727,-0.645 -2.246,-1.399 -0.489,-0.691 -0.672,-1.523 -0.512,-2.332 0.336,-1.711 2.148,-2.902 3.961,-2.617 l 0.359,0.059 -0.297,0.215 -0.566,0.418 -0.297,0.207 0.059,-0.364 0.007,-0.058 0.075,-0.45 0.019,-0.125 h 0.137 l 0.453,0.028 120.891,7.617 h 0.066 l 0.043,0.02 c 0.633,0.148 1.277,-0.165 1.438,-0.704 0.078,-0.273 0.039,-0.593 -0.122,-0.867 -0.144,-0.254 -0.363,-0.422 -0.617,-0.48 l -0.043,-0.008 -0.015,-0.012 h -0.008 l -0.039,-0.019 -108.973,-47.578 -0.453,-0.196 -0.137,-0.066 0.059,-0.137 0.195,-0.449 0.024,-0.059 0.132,-0.312 0.141,0.312 0.309,0.664 0.136,0.313 -0.32,-0.109 c -0.867,-0.282 -1.578,-0.907 -1.949,-1.708 -0.367,-0.781 -0.391,-1.632 -0.07,-2.414 0.656,-1.621 2.664,-2.5 4.382,-1.941 l 0.356,0.117 -0.336,0.164 -0.621,0.293 -0.336,0.168 0.125,-0.351 0.023,-0.059 0.153,-0.41 0.05,-0.129 0.122,0.031 0.429,0.098 117.504,26.308 h 0.043 l 0.016,0.008 h 0.011 l 0.043,0.02 c 0.567,0.234 1.426,-0.067 1.7,-0.606 0.105,-0.203 0.117,-0.449 0.027,-0.691 -0.106,-0.305 -0.34,-0.547 -0.633,-0.664 l -0.039,-0.02 h -0.016 l -0.007,-0.011 -0.039,-0.028 -97.996,-63.75 -0.422,-0.273 -0.129,-0.078 0.082,-0.129 0.285,-0.418 0.035,-0.059 0.184,-0.273 0.089,0.32 0.184,0.723 0.082,0.324 -0.297,-0.148 c -0.801,-0.418 -1.367,-1.114 -1.597,-1.973 -0.219,-0.82 -0.079,-1.707 0.386,-2.43 0.953,-1.476 3.09,-2.031 4.68,-1.211 l 0.336,0.176 -0.367,0.106 -0.66,0.187 -0.364,0.105 0.196,-0.332 0.031,-0.046 0.223,-0.372 0.062,-0.109 0.117,0.051 0.399,0.156 110.527,44.149 0.043,0.011 0.012,0.008 0.011,0.012 0.039,0.027 c 0.532,0.332 1.29,0.215 1.661,-0.254 0.203,-0.261 0.296,-0.633 0.238,-0.965 -0.031,-0.168 -0.113,-0.402 -0.336,-0.539 l -0.039,-0.027 -0.012,-0.012 h -0.008 l -0.035,-0.039 -84.125,-77.996 -0.379,-0.351 -0.109,-0.11 0.105,-0.105 0.356,-0.364 0.051,-0.046 0.23,-0.235 0.024,0.321 0.058,0.753 0.024,0.332 -0.262,-0.195 c -0.699,-0.539 -1.125,-1.289 -1.199,-2.148 -0.078,-0.86 0.226,-1.731 0.836,-2.383 1.214,-1.301 3.429,-1.504 4.828,-0.449 l 0.308,0.222 -0.379,0.051 -0.679,0.067 -0.383,0.039 0.254,-0.293 0.047,-0.047 0.273,-0.313 0.082,-0.097 0.113,0.066 0.356,0.215 100.297,60.683 0.039,0.02 0.015,0.012 0.008,0.008 0.035,0.039 c 0.461,0.402 1.231,0.402 1.688,0 0.539,-0.489 0.617,-0.77 0.617,-0.899 0,-0.047 0,-0.223 -0.367,-0.555 l -0.039,-0.031 -0.008,-0.008 -0.012,-0.011 -0.027,-0.039 -67.77,-89.9613 -0.308,-0.3985 -0.086,-0.1289 0.121,-0.0859 0.414,-0.3047 0.055,-0.0391 0.269,-0.1953 -0.035,0.332 -0.066,0.7539 -0.035,0.3321 -0.231,-0.2461 c -0.57,-0.625 -0.848,-1.4141 -0.777,-2.2539 0.074,-0.8789 0.543,-1.711 1.285,-2.2656 1.441,-1.086 3.656,-0.9375 4.84,0.3203 l 0.262,0.2851 -0.383,-0.0312 -0.676,-0.0469 -0.387,-0.0312 0.305,-0.2344 0.055,-0.0469 0.32,-0.2539 0.098,-0.0781 0.093,0.0859 0.317,0.2656 86.965,75.32 0.039,0.039 0.007,0.012 0.012,0.008 0.027,0.039 c 0.375,0.48 1.137,0.605 1.633,0.266 0.414,-0.293 0.672,-0.625 0.723,-0.938 0.027,-0.207 -0.031,-0.391 -0.172,-0.578 l -0.031,-0.047 h -0.008 l -0.012,-0.019 -0.019,-0.039 -49.239,-98.9848 -0.222,-0.461 -0.063,-0.125 0.129,-0.0703 0.449,-0.2227 0.067,-0.0312 0.297,-0.1445 -0.09,0.3203 -0.199,0.7226 -0.086,0.3243 -0.184,-0.2852 c -0.437,-0.6836 -0.566,-1.4922 -0.351,-2.293 0.23,-0.8711 0.851,-1.6328 1.699,-2.0703 1.633,-0.8398 3.789,-0.3437 4.715,1.0938 l 0.203,0.3203 -0.367,-0.0977 -0.664,-0.164 -0.372,-0.0977 0.34,-0.1758 0.059,-0.039 0.363,-0.2071 0.113,-0.0586 0.079,0.1016 0.265,0.3203 49.922,61.6407 0.156,0.195 -0.242,0.039 -0.871,0.196 -0.242,0.046 0.066,-0.234 0.028,-0.117 0.25,-0.957 0.078,-0.293 0.183,0.234 0.621,0.774 22.094,27.273 0.274,0.344 -0.422,-0.098 -0.602,-0.136 -0.426,-0.11 0.395,-0.176 c 14.512,-6.738 28.769,-11.043 40.137,-12.148 33.867,-3.262 65.523,4.355 82.609,19.883 8.887,8.066 13.379,17.726 13.379,28.722" /><path              id="path82"              style="fill:none;stroke:#fbbf16;stroke-width:3;stroke-linecap:butt;stroke-linejoin:miter;stroke-miterlimit:4;stroke-dasharray:none;stroke-opacity:1"              d="m 731.422,165.523 c 0,41.434 -46.442,57.383 -100.219,75.852 -55.406,19.031 -118.203,40.594 -148.215,94.93 l -0.133,0.238 -0.039,0.074 -0.082,0.004 -0.273,0.02 -116.141,7.32 -0.445,0.023 -0.137,0.012 -0.019,-0.133 -0.078,-0.433 -0.016,-0.067 -0.063,-0.359 0.297,0.215 0.571,0.406 0.3,0.207 -0.363,0.059 c -1.812,0.285 -3.629,-0.911 -3.961,-2.618 -0.16,-0.804 0.02,-1.632 0.508,-2.332 0.52,-0.746 1.344,-1.25 2.254,-1.398 l 0.34,-0.051 -0.192,0.285 -0.41,0.606 -0.195,0.285 -0.07,-0.336 -0.016,-0.066 -0.113,-0.473 -0.028,-0.141 0.141,-0.035 0.469,-0.121 116.718,-29.961 0.043,-0.012 0.012,-0.003 h 0.012 l 0.047,-0.004 c 0.336,-0.024 0.636,-0.176 0.84,-0.411 0.148,-0.187 0.222,-0.41 0.203,-0.628 -0.055,-0.52 -0.61,-1.055 -1.285,-1.004 0.007,0 -0.039,0.007 -0.039,0.007 h -0.028 l -0.043,-0.007 c 0.004,0 -120.75,-11.328 -120.75,-11.328 l -0.472,-0.047 -0.137,-0.012 0.004,-0.145 0.015,-0.468 v -0.071 l 0.016,-0.34 0.242,0.254 0.504,0.508 0.246,0.254 h -0.351 c -1.856,0 -3.418,-1.465 -3.418,-3.215 0,-0.82 0.332,-1.59 0.941,-2.207 0.645,-0.644 1.547,-1.015 2.477,-1.015 h 0.351 l -0.246,0.254 -0.504,0.519 -0.242,0.254 -0.016,-0.352 v -0.07 l -0.015,-0.469 -0.004,-0.136 0.137,-0.02 0.472,-0.039 120.594,-11.328 h 0.043 l 0.008,-0.008 0.015,0.008 h 0.043 c 0.641,0.058 1.203,-0.352 1.258,-0.887 0.027,-0.285 -0.074,-0.586 -0.269,-0.832 -0.18,-0.215 -0.426,-0.34 -0.696,-0.359 l -0.043,-0.012 h -0.023 l -0.043,-0.008 -116.641,-29.933 -0.465,-0.118 -0.14,-0.027 0.027,-0.148 0.098,-0.469 0.015,-0.059 0.075,-0.34 0.195,0.282 0.414,0.597 0.195,0.293 -0.347,-0.058 c -0.907,-0.149 -1.727,-0.645 -2.246,-1.399 -0.489,-0.691 -0.672,-1.523 -0.512,-2.332 0.336,-1.711 2.148,-2.902 3.961,-2.617 l 0.359,0.059 -0.297,0.215 -0.566,0.418 -0.297,0.207 0.059,-0.364 0.007,-0.058 0.075,-0.45 0.019,-0.125 h 0.137 l 0.453,0.028 120.891,7.617 h 0.066 l 0.043,0.02 c 0.633,0.148 1.277,-0.165 1.438,-0.704 0.078,-0.273 0.039,-0.593 -0.122,-0.867 -0.144,-0.254 -0.363,-0.422 -0.617,-0.48 l -0.043,-0.008 -0.015,-0.012 h -0.008 l -0.039,-0.019 -108.973,-47.578 -0.453,-0.196 -0.137,-0.066 0.059,-0.137 0.195,-0.449 0.024,-0.059 0.132,-0.312 0.141,0.312 0.309,0.664 0.136,0.313 -0.32,-0.109 c -0.867,-0.282 -1.578,-0.907 -1.949,-1.708 -0.367,-0.781 -0.391,-1.632 -0.07,-2.414 0.656,-1.621 2.664,-2.5 4.382,-1.941 l 0.356,0.117 -0.336,0.164 -0.621,0.293 -0.336,0.168 0.125,-0.351 0.023,-0.059 0.153,-0.41 0.05,-0.129 0.122,0.031 0.429,0.098 117.504,26.308 h 0.043 l 0.016,0.008 h 0.011 l 0.043,0.02 c 0.567,0.234 1.426,-0.067 1.7,-0.606 0.105,-0.203 0.117,-0.449 0.027,-0.691 -0.106,-0.305 -0.34,-0.547 -0.633,-0.664 l -0.039,-0.02 h -0.016 l -0.007,-0.011 -0.039,-0.028 -97.996,-63.75 -0.422,-0.273 -0.129,-0.078 0.082,-0.129 0.285,-0.418 0.035,-0.059 0.184,-0.273 0.089,0.32 0.184,0.723 0.082,0.324 -0.297,-0.148 c -0.801,-0.418 -1.367,-1.114 -1.597,-1.973 -0.219,-0.82 -0.079,-1.707 0.386,-2.43 0.953,-1.476 3.09,-2.031 4.68,-1.211 l 0.336,0.176 -0.367,0.106 -0.66,0.187 -0.364,0.105 0.196,-0.332 0.031,-0.046 0.223,-0.372 0.062,-0.109 0.117,0.051 0.399,0.156 110.527,44.149 0.043,0.011 0.012,0.008 0.011,0.012 0.039,0.027 c 0.532,0.332 1.29,0.215 1.661,-0.254 0.203,-0.261 0.296,-0.633 0.238,-0.965 -0.031,-0.168 -0.113,-0.402 -0.336,-0.539 l -0.039,-0.027 -0.012,-0.012 h -0.008 l -0.035,-0.039 -84.125,-77.996 -0.379,-0.351 -0.109,-0.11 0.105,-0.105 0.356,-0.364 0.051,-0.046 0.23,-0.235 0.024,0.321 0.058,0.753 0.024,0.332 -0.262,-0.195 c -0.699,-0.539 -1.125,-1.289 -1.199,-2.148 -0.078,-0.86 0.226,-1.731 0.836,-2.383 1.214,-1.301 3.429,-1.504 4.828,-0.449 l 0.308,0.222 -0.379,0.051 -0.679,0.067 -0.383,0.039 0.254,-0.293 0.047,-0.047 0.273,-0.313 0.082,-0.097 0.113,0.066 0.356,0.215 100.297,60.683 0.039,0.02 0.015,0.012 0.008,0.008 0.035,0.039 c 0.461,0.402 1.231,0.402 1.688,0 0.539,-0.489 0.617,-0.77 0.617,-0.899 0,-0.047 0,-0.223 -0.367,-0.555 l -0.039,-0.031 -0.008,-0.008 -0.012,-0.011 -0.027,-0.039 -67.77,-89.9613 -0.308,-0.3985 -0.086,-0.1289 0.121,-0.0859 0.414,-0.3047 0.055,-0.0391 0.269,-0.1953 -0.035,0.332 -0.066,0.7539 -0.035,0.3321 -0.231,-0.2461 c -0.57,-0.625 -0.848,-1.4141 -0.777,-2.2539 0.074,-0.8789 0.543,-1.711 1.285,-2.2656 1.441,-1.086 3.656,-0.9375 4.84,0.3203 l 0.262,0.2851 -0.383,-0.0312 -0.676,-0.0469 -0.387,-0.0312 0.305,-0.2344 0.055,-0.0469 0.32,-0.2539 0.098,-0.0781 0.093,0.0859 0.317,0.2656 86.965,75.32 0.039,0.039 0.007,0.012 0.012,0.008 0.027,0.039 c 0.375,0.48 1.137,0.605 1.633,0.266 0.414,-0.293 0.672,-0.625 0.723,-0.938 0.027,-0.207 -0.031,-0.391 -0.172,-0.578 l -0.031,-0.047 h -0.008 l -0.012,-0.019 -0.019,-0.039 -49.239,-98.9848 -0.222,-0.461 -0.063,-0.125 0.129,-0.0703 0.449,-0.2227 0.067,-0.0312 0.297,-0.1445 -0.09,0.3203 -0.199,0.7226 -0.086,0.3243 -0.184,-0.2852 c -0.437,-0.6836 -0.566,-1.4922 -0.351,-2.293 0.23,-0.8711 0.851,-1.6328 1.699,-2.0703 1.633,-0.8398 3.789,-0.3437 4.715,1.0938 l 0.203,0.3203 -0.367,-0.0977 -0.664,-0.164 -0.372,-0.0977 0.34,-0.1758 0.059,-0.039 0.363,-0.2071 0.113,-0.0586 0.079,0.1016 0.265,0.3203 49.922,61.6407 0.156,0.195 -0.242,0.039 -0.871,0.196 -0.242,0.046 0.066,-0.234 0.028,-0.117 0.25,-0.957 0.078,-0.293 0.183,0.234 0.621,0.774 22.094,27.273 0.274,0.344 -0.422,-0.098 -0.602,-0.136 -0.426,-0.11 0.395,-0.176 c 14.512,-6.738 28.769,-11.043 40.137,-12.148 33.867,-3.262 65.523,4.355 82.609,19.883 8.887,8.066 13.379,17.726 13.379,28.722 z" /><path              id="path84"              style="fill:#fbbf16;fill-opacity:1;fill-rule:nonzero;stroke:none"              d="m 889.625,71.9102 0.059,0.039 0.429,0.293 0.117,0.0859 -0.097,0.1289 -0.293,0.4102 -26.211,34.8128 -0.586,0.773 -0.176,0.235 -0.097,-0.286 -0.293,-0.918 c -1.602,-5.039 -3.418,-9.9488 -5.411,-14.609 l -0.156,-0.332 -0.039,-0.0977 0.078,-0.0781 0.293,-0.2422 27.149,-23.5156 0.312,-0.2735 0.098,-0.0781 0.078,0.0664 0.332,0.2539 0.059,0.0391 0.312,0.2461 -0.41,0.0273 -0.664,0.0586 -0.391,0.0313 0.274,-0.2852 c 1.191,-1.2578 3.398,-1.4141 4.843,-0.332 0.743,0.5586 1.192,1.3867 1.27,2.2656 0.078,0.8399 -0.195,1.6406 -0.762,2.2578 l -0.234,0.2344 -0.039,-0.3242 -0.059,-0.75 -0.039,-0.3321 0.254,0.1954" /><path              id="path86"              style="fill:none;stroke:#fbbf16;stroke-width:3;stroke-linecap:butt;stroke-linejoin:miter;stroke-miterlimit:4;stroke-dasharray:none;stroke-opacity:1"              d="m 889.625,71.9102 0.059,0.039 0.429,0.293 0.117,0.0859 -0.097,0.1289 -0.293,0.4102 -26.211,34.8128 -0.586,0.773 -0.176,0.235 -0.097,-0.286 -0.293,-0.918 c -1.602,-5.039 -3.418,-9.9488 -5.411,-14.609 l -0.156,-0.332 -0.039,-0.0977 0.078,-0.0781 0.293,-0.2422 27.149,-23.5156 0.312,-0.2735 0.098,-0.0781 0.078,0.0664 0.332,0.2539 0.059,0.0391 0.312,0.2461 -0.41,0.0273 -0.664,0.0586 -0.391,0.0313 0.274,-0.2852 c 1.191,-1.2578 3.398,-1.4141 4.843,-0.332 0.743,0.5586 1.192,1.3867 1.27,2.2656 0.078,0.8399 -0.195,1.6406 -0.762,2.2578 l -0.234,0.2344 -0.039,-0.3242 -0.059,-0.75 -0.039,-0.3321 z" /><path              id="path88"              style="fill:#fbbf16;fill-opacity:1;fill-rule:nonzero;stroke:none"              d="m 928.863,107.672 0.039,0.047 0.371,0.363 0.098,0.117 -0.098,0.106 -0.39,0.351 -55.977,51.926 -0.781,0.711 -0.215,0.227 -0.039,-0.325 -0.059,-1.043 c -0.527,-7.843 -1.367,-15.507 -2.48,-22.804 l -0.059,-0.321 -0.019,-0.109 0.098,-0.047 0.273,-0.176 54.707,-33.105 0.352,-0.215 0.117,-0.059 0.078,0.086 0.273,0.305 0.039,0.047 0.274,0.293 -0.391,-0.039 -0.683,-0.059 -0.371,-0.039 0.312,-0.234 c 1.387,-1.051 3.594,-0.848 4.824,0.449 0.606,0.656 0.918,1.523 0.84,2.395 -0.078,0.847 -0.508,1.609 -1.211,2.136 l -0.254,0.196 0.02,-0.332 0.058,-0.75 0.02,-0.325 0.234,0.227" /><path              id="path90"              style="fill:none;stroke:#fbbf16;stroke-width:3;stroke-linecap:butt;stroke-linejoin:miter;stroke-miterlimit:4;stroke-dasharray:none;stroke-opacity:1"              d="m 928.863,107.672 0.039,0.047 0.371,0.363 0.098,0.117 -0.098,0.106 -0.39,0.351 -55.977,51.926 -0.781,0.711 -0.215,0.227 -0.039,-0.325 -0.059,-1.043 c -0.527,-7.843 -1.367,-15.507 -2.48,-22.804 l -0.059,-0.321 -0.019,-0.109 0.098,-0.047 0.273,-0.176 54.707,-33.105 0.352,-0.215 0.117,-0.059 0.078,0.086 0.273,0.305 0.039,0.047 0.274,0.293 -0.391,-0.039 -0.683,-0.059 -0.371,-0.039 0.312,-0.234 c 1.387,-1.051 3.594,-0.848 4.824,0.449 0.606,0.656 0.918,1.523 0.84,2.395 -0.078,0.847 -0.508,1.609 -1.211,2.136 l -0.254,0.196 0.02,-0.332 0.058,-0.75 0.02,-0.325 z" /><path              id="path92"              style="fill:#fbbf16;fill-opacity:1;fill-rule:nonzero;stroke:none"              d="m 960.562,149 0.04,0.059 0.293,0.429 0.097,0.125 -0.137,0.078 -0.429,0.286 -88.633,57.675 -0.918,0.594 -0.293,0.188 0.059,-0.332 0.156,-1.094 c 1.152,-7.813 1.738,-16.047 1.738,-24.434 l -0.019,-2.91 -0.02,-1.23 v -0.344 h 0.293 l -0.059,-0.125 -0.136,-0.02 c 0.019,0 0.195,-0.078 0.312,-0.117 l 83.985,-33.566 0.39,-0.157 0.117,-0.046 0.059,0.105 0.234,0.371 0.02,0.051 0.195,0.332 -0.351,-0.109 -0.664,-0.184 -0.371,-0.098 0.351,-0.175 c 1.582,-0.821 3.711,-0.274 4.668,1.21 0.469,0.723 0.606,1.602 0.391,2.43 -0.235,0.852 -0.801,1.543 -1.602,1.953 l -0.293,0.157 0.078,-0.321 0.176,-0.722 0.078,-0.325 0.195,0.266" /><path              id="path94"              style="fill:none;stroke:#fbbf16;stroke-width:3;stroke-linecap:butt;stroke-linejoin:miter;stroke-miterlimit:4;stroke-dasharray:none;stroke-opacity:1"              d="m 960.562,149 0.04,0.059 0.293,0.429 0.097,0.125 -0.137,0.078 -0.429,0.286 -88.633,57.675 -0.918,0.594 -0.293,0.188 0.059,-0.332 0.156,-1.094 c 1.152,-7.813 1.738,-16.047 1.738,-24.434 l -0.019,-2.91 -0.02,-1.23 v -0.344 h 0.293 l -0.059,-0.125 -0.136,-0.02 c 0.019,0 0.195,-0.078 0.312,-0.117 l 83.985,-33.566 0.39,-0.157 0.117,-0.046 0.059,0.105 0.234,0.371 0.02,0.051 0.195,0.332 -0.351,-0.109 -0.664,-0.184 -0.371,-0.098 0.351,-0.175 c 1.582,-0.821 3.711,-0.274 4.668,1.21 0.469,0.723 0.606,1.602 0.391,2.43 -0.235,0.852 -0.801,1.543 -1.602,1.953 l -0.293,0.157 0.078,-0.321 0.176,-0.722 0.078,-0.325 z" /><path              id="path96"              style="fill:#fbbf16;fill-opacity:1;fill-rule:nonzero;stroke:none"              d="m 1004.98,290.688 c 0,0.8 -0.33,1.593 -0.94,2.199 -0.66,0.644 -1.56,1.015 -2.48,1.015 h -0.35 l 0.25,-0.254 0.49,-0.507 0.26,-0.254 v 0.418 l 0.02,0.468 v 0.137 l -0.14,0.012 -0.47,0.039 -120.628,11.336 -0.039,0.008 h -0.039 l -0.039,-0.008 c -0.605,-0.047 -1.094,0.348 -1.152,0.918 -0.039,0.301 0.058,0.597 0.234,0.82 0.137,0.145 0.332,0.313 0.664,0.34 l 0.059,0.004 h 0.019 v 0.004 l 0.039,0.012 116.641,29.921 0.469,0.118 0.156,0.039 -0.039,0.14 -0.117,0.477 -0.02,0.058 -0.078,0.34 -0.176,-0.289 -0.41,-0.605 -0.195,-0.289 0.332,0.058 c 0.918,0.141 1.738,0.649 2.246,1.391 0.493,0.699 0.683,1.531 0.533,2.34 -0.338,1.703 -2.154,2.902 -3.971,2.617 l -0.371,-0.059 0.313,-0.214 0.566,-0.407 0.293,-0.215 -0.058,0.368 -0.02,0.058 -0.078,0.442 -0.02,0.128 -0.136,-0.007 -0.43,-0.024 -121.035,-7.617 h -0.059 v -0.008 l -0.058,-0.008 c -0.606,-0.148 -1.192,0.157 -1.368,0.707 -0.078,0.286 -0.039,0.602 0.098,0.852 0.078,0.148 0.254,0.352 0.586,0.43 l 0.039,0.008 v 0.003 l 0.02,0.008 0.039,0.012 109.101,47.637 0.469,0.203 0.137,0.062 -0.059,0.137 -0.195,0.457 -0.039,0.059 -0.137,0.308 -0.137,-0.308 -0.293,-0.672 -0.156,-0.313 0.332,0.106 c 0.879,0.285 1.582,0.906 1.953,1.711 0.352,0.777 0.391,1.636 0.059,2.418 -0.645,1.609 -2.656,2.5 -4.375,1.937 l -0.352,-0.117 0.332,-0.16 0.625,-0.305 0.332,-0.164 -0.117,0.344 -0.039,0.066 -0.137,0.414 -0.058,0.121 -0.117,-0.023 -0.43,-0.098 -117.813,-26.351 -0.039,-0.016 h -0.019 v -0.004 l -0.059,-0.019 c -0.605,-0.254 -1.406,-0.047 -1.66,0.429 -0.117,0.219 -0.117,0.493 -0.039,0.75 0.117,0.278 0.312,0.504 0.586,0.618 l 0.039,0.019 h 0.02 l 0.019,0.008 0.02,0.023 98.32,63.965 0.449,0.281 0.117,0.082 -0.078,0.125 -0.293,0.422 -0.039,0.055 -0.195,0.277 -0.078,-0.324 -0.176,-0.726 -0.078,-0.321 0.293,0.149 c 0.801,0.422 1.367,1.113 1.582,1.968 0.234,0.821 0.078,1.711 -0.371,2.434 -0.957,1.469 -3.086,2.023 -4.688,1.211 l -0.332,-0.176 0.371,-0.105 0.645,-0.176 0.371,-0.106 -0.195,0.329 -0.039,0.05 -0.215,0.36 -0.059,0.101 -0.117,-0.043 -0.391,-0.156 -111.015,-44.324 -0.039,-0.02 -0.02,-0.004 v -0.003 l -0.039,-0.024 c -0.547,-0.348 -1.211,-0.266 -1.563,0.188 -0.195,0.246 -0.273,0.566 -0.234,0.859 0.039,0.172 0.137,0.402 0.371,0.562 l 0.039,0.024 0.02,0.008 v 0.008 l 0.039,0.035 84.453,78.316 0.391,0.344 0.117,0.109 -0.117,0.106 -0.352,0.371 -0.039,0.047 -0.254,0.238 -0.019,-0.332 -0.059,-0.746 -0.02,-0.332 0.274,0.199 c 0.683,0.523 1.113,1.285 1.191,2.137 0.078,0.871 -0.234,1.738 -0.84,2.383 -1.211,1.304 -3.437,1.511 -4.824,0.457 l -0.312,-0.231 0.39,-0.039 0.664,-0.062 0.391,-0.04 -0.254,0.286 -0.039,0.05 c -0.019,0 -0.293,0.309 -0.293,0.309 l -0.078,0.09 -0.117,-0.067 -0.352,-0.211 -100.781,-60.96 -0.039,-0.024 -0.02,-0.012 -0.019,-0.007 -0.02,-0.032 c -0.449,-0.386 -1.191,-0.347 -1.679,0.094 -0.196,0.18 -0.313,0.414 -0.313,0.66 0,0.242 0.117,0.477 0.313,0.657 l 0.039,0.035 0.019,0.011 v 0.008 l 0.039,0.039 67.989,90.27 0.312,0.41 0.098,0.121 -0.137,0.094 -0.41,0.297 -0.059,0.035 -0.273,0.195 0.039,-0.332 0.078,-0.746 0.039,-0.328 0.215,0.238 c 0.586,0.617 0.859,1.41 0.781,2.246 -0.078,0.891 -0.547,1.715 -1.289,2.27 -1.426,1.086 -3.652,0.941 -4.824,-0.321 l -0.274,-0.281 0.391,0.028 0.664,0.046 0.391,0.032 -0.293,0.238 -0.059,0.043 -0.332,0.254 -0.097,0.078 -0.098,-0.078 -0.293,-0.27 -87.422,-75.695 -0.039,-0.031 -0.02,-0.008 v -0.016 l -0.019,-0.039 c -0.391,-0.492 -1.133,-0.64 -1.641,-0.316 -0.293,0.18 -0.488,0.457 -0.547,0.746 -0.019,0.137 -0.019,0.351 0.137,0.551 l 0.039,0.039 v 0.015 l 0.02,0.016 0.019,0.043 49.551,99.617 0.215,0.442 0.058,0.136 -0.136,0.071 -0.43,0.218 -0.078,0.036 -0.293,0.148 0.098,-0.324 0.195,-0.715 0.078,-0.324 0.176,0.281 c 0.449,0.684 0.566,1.492 0.371,2.289 -0.254,0.879 -0.859,1.633 -1.719,2.07 -1.621,0.844 -3.789,0.348 -4.707,-1.082 l -0.195,-0.324 0.371,0.094 0.664,0.172 0.352,0.09 -0.333,0.183 -0.058,0.031 -0.371,0.204 -0.098,0.058 -0.078,-0.098 -0.273,-0.324 -13.223,-16.312 -0.137,-0.168 0.215,-0.071 0.879,-0.312 0.215,-0.07 v 2.125 l -0.274,-0.328 -0.898,-1.09 -60.078,-73.907 -0.274,-0.332 0.411,0.094 0.605,0.133 0.43,0.094 -0.391,0.187 c -20.156,9.817 -54.375,15.84 -70.004,15.84 -0.293,0 -0.781,0.016 -1.398,0.031 -32.047,0.789 -55.899,-5.527 -68.961,-18.273 -7.551,-7.367 -11.379,-16.879 -11.379,-28.27 0,-15.664 8.836,-28.492 27.801,-40.375 16.957,-10.625 40.504,-19.523 65.445,-28.937 32.52,-12.285 69.394,-26.211 99.609,-47.035 34.649,-23.887 55.059,-53.098 62.403,-89.317 l 0.078,-0.324 v -0.086 l 0.097,-0.019 0.313,-0.071 111.133,-24.89 0.429,-0.098 0.137,-0.02 0.039,0.118 0.156,0.402 0.02,0.055 0.137,0.351 -0.352,-0.164 -0.605,-0.293 -0.352,-0.156 0.371,-0.117 c 1.719,-0.567 3.711,0.324 4.375,1.941 0.313,0.781 0.293,1.633 -0.078,2.414 -0.371,0.801 -1.074,1.426 -1.933,1.707 l -0.333,0.098 0.137,-0.301 0.313,-0.676 0.136,-0.3 0.137,0.3 0.02,0.059 0.195,0.461 0.059,0.137 -0.137,0.058 -0.449,0.203 -108.887,47.559 -0.039,0.019 -0.02,0.012 h -0.019 l -0.039,0.008 c -0.254,0.059 -0.449,0.227 -0.586,0.469 -0.176,0.285 -0.215,0.617 -0.137,0.898 0.176,0.539 0.801,0.852 1.445,0.703 l 0.039,-0.008 0.02,-0.011 h 0.039 l 120.84,-7.625 0.449,-0.032 0.137,-0.007 0.019,0.136 0.078,0.43 v 0.067 l 0.059,0.363 -0.293,-0.215 -0.566,-0.402 -0.293,-0.223 0.351,-0.051 c 1.817,-0.293 3.633,0.91 3.97,2.617 0.16,0.801 -0.02,1.633 -0.513,2.336 -0.527,0.742 -1.347,1.25 -2.246,1.387 l -0.351,0.059 0.195,-0.286 0.41,-0.605 0.195,-0.281 0.079,0.34 0.019,0.058 0.098,0.469 0.019,0.148 -0.136,0.039 -0.469,0.118 -116.504,29.902 -0.039,0.019 h -0.039 l -0.039,0.008 c -0.313,0.02 -0.586,0.168 -0.801,0.403 -0.176,0.214 -0.254,0.457 -0.215,0.711 0.039,0.507 0.567,1.054 1.25,0.996 l 0.039,-0.008 h 0.02 v 0.008 h 0.039 l 120.569,11.308 0.47,0.039 0.14,0.012 v 0.145 l -0.02,0.468 v 0.422 l -0.26,-0.254 -0.5,-0.527 -0.24,-0.254 h 0.35 c 0.92,0 1.82,0.379 2.48,1.023 0.61,0.606 0.94,1.387 0.94,2.208" /><path              id="path98"              style="fill:none;stroke:#fbbf16;stroke-width:3;stroke-linecap:butt;stroke-linejoin:miter;stroke-miterlimit:4;stroke-dasharray:none;stroke-opacity:1"              d="m 1004.98,290.688 c 0,0.8 -0.33,1.593 -0.94,2.199 -0.66,0.644 -1.56,1.015 -2.48,1.015 h -0.35 l 0.25,-0.254 0.49,-0.507 0.26,-0.254 v 0.418 l 0.02,0.468 v 0.137 l -0.14,0.012 -0.47,0.039 -120.628,11.336 -0.039,0.008 h -0.039 l -0.039,-0.008 c -0.605,-0.047 -1.094,0.348 -1.152,0.918 -0.039,0.301 0.058,0.597 0.234,0.82 0.137,0.145 0.332,0.313 0.664,0.34 l 0.059,0.004 h 0.019 v 0.004 l 0.039,0.012 116.641,29.921 0.469,0.118 0.156,0.039 -0.039,0.14 -0.117,0.477 -0.02,0.058 -0.078,0.34 -0.176,-0.289 -0.41,-0.605 -0.195,-0.289 0.332,0.058 c 0.918,0.141 1.738,0.649 2.246,1.391 0.493,0.699 0.683,1.531 0.533,2.34 -0.338,1.703 -2.154,2.902 -3.971,2.617 l -0.371,-0.059 0.313,-0.214 0.566,-0.407 0.293,-0.215 -0.058,0.368 -0.02,0.058 -0.078,0.442 -0.02,0.128 -0.136,-0.007 -0.43,-0.024 -121.035,-7.617 h -0.059 v -0.008 l -0.058,-0.008 c -0.606,-0.148 -1.192,0.157 -1.368,0.707 -0.078,0.286 -0.039,0.602 0.098,0.852 0.078,0.148 0.254,0.352 0.586,0.43 l 0.039,0.008 v 0.003 l 0.02,0.008 0.039,0.012 109.101,47.637 0.469,0.203 0.137,0.062 -0.059,0.137 -0.195,0.457 -0.039,0.059 -0.137,0.308 -0.137,-0.308 -0.293,-0.672 -0.156,-0.313 0.332,0.106 c 0.879,0.285 1.582,0.906 1.953,1.711 0.352,0.777 0.391,1.636 0.059,2.418 -0.645,1.609 -2.656,2.5 -4.375,1.937 l -0.352,-0.117 0.332,-0.16 0.625,-0.305 0.332,-0.164 -0.117,0.344 -0.039,0.066 -0.137,0.414 -0.058,0.121 -0.117,-0.023 -0.43,-0.098 -117.813,-26.351 -0.039,-0.016 h -0.019 v -0.004 l -0.059,-0.019 c -0.605,-0.254 -1.406,-0.047 -1.66,0.429 -0.117,0.219 -0.117,0.493 -0.039,0.75 0.117,0.278 0.312,0.504 0.586,0.618 l 0.039,0.019 h 0.02 l 0.019,0.008 0.02,0.023 98.32,63.965 0.449,0.281 0.117,0.082 -0.078,0.125 -0.293,0.422 -0.039,0.055 -0.195,0.277 -0.078,-0.324 -0.176,-0.726 -0.078,-0.321 0.293,0.149 c 0.801,0.422 1.367,1.113 1.582,1.968 0.234,0.821 0.078,1.711 -0.371,2.434 -0.957,1.469 -3.086,2.023 -4.688,1.211 l -0.332,-0.176 0.371,-0.105 0.645,-0.176 0.371,-0.106 -0.195,0.329 -0.039,0.05 -0.215,0.36 -0.059,0.101 -0.117,-0.043 -0.391,-0.156 -111.015,-44.324 -0.039,-0.02 -0.02,-0.004 v -0.003 l -0.039,-0.024 c -0.547,-0.348 -1.211,-0.266 -1.563,0.188 -0.195,0.246 -0.273,0.566 -0.234,0.859 0.039,0.172 0.137,0.402 0.371,0.562 l 0.039,0.024 0.02,0.008 v 0.008 l 0.039,0.035 84.453,78.316 0.391,0.344 0.117,0.109 -0.117,0.106 -0.352,0.371 -0.039,0.047 -0.254,0.238 -0.019,-0.332 -0.059,-0.746 -0.02,-0.332 0.274,0.199 c 0.683,0.523 1.113,1.285 1.191,2.137 0.078,0.871 -0.234,1.738 -0.84,2.383 -1.211,1.304 -3.437,1.511 -4.824,0.457 l -0.312,-0.231 0.39,-0.039 0.664,-0.062 0.391,-0.04 -0.254,0.286 -0.039,0.05 c -0.019,0 -0.293,0.309 -0.293,0.309 l -0.078,0.09 -0.117,-0.067 -0.352,-0.211 -100.781,-60.96 -0.039,-0.024 -0.02,-0.012 -0.019,-0.007 -0.02,-0.032 c -0.449,-0.386 -1.191,-0.347 -1.679,0.094 -0.196,0.18 -0.313,0.414 -0.313,0.66 0,0.242 0.117,0.477 0.313,0.657 l 0.039,0.035 0.019,0.011 v 0.008 l 0.039,0.039 67.989,90.27 0.312,0.41 0.098,0.121 -0.137,0.094 -0.41,0.297 -0.059,0.035 -0.273,0.195 0.039,-0.332 0.078,-0.746 0.039,-0.328 0.215,0.238 c 0.586,0.617 0.859,1.41 0.781,2.246 -0.078,0.891 -0.547,1.715 -1.289,2.27 -1.426,1.086 -3.652,0.941 -4.824,-0.321 l -0.274,-0.281 0.391,0.028 0.664,0.046 0.391,0.032 -0.293,0.238 -0.059,0.043 -0.332,0.254 -0.097,0.078 -0.098,-0.078 -0.293,-0.27 -87.422,-75.695 -0.039,-0.031 -0.02,-0.008 v -0.016 l -0.019,-0.039 c -0.391,-0.492 -1.133,-0.64 -1.641,-0.316 -0.293,0.18 -0.488,0.457 -0.547,0.746 -0.019,0.137 -0.019,0.351 0.137,0.551 l 0.039,0.039 v 0.015 l 0.02,0.016 0.019,0.043 49.551,99.617 0.215,0.442 0.058,0.136 -0.136,0.071 -0.43,0.218 -0.078,0.036 -0.293,0.148 0.098,-0.324 0.195,-0.715 0.078,-0.324 0.176,0.281 c 0.449,0.684 0.566,1.492 0.371,2.289 -0.254,0.879 -0.859,1.633 -1.719,2.07 -1.621,0.844 -3.789,0.348 -4.707,-1.082 l -0.195,-0.324 0.371,0.094 0.664,0.172 0.352,0.09 -0.333,0.183 -0.058,0.031 -0.371,0.204 -0.098,0.058 -0.078,-0.098 -0.273,-0.324 -13.223,-16.312 -0.137,-0.168 0.215,-0.071 0.879,-0.312 0.215,-0.07 v 2.125 l -0.274,-0.328 -0.898,-1.09 -60.078,-73.907 -0.274,-0.332 0.411,0.094 0.605,0.133 0.43,0.094 -0.391,0.187 c -20.156,9.817 -54.375,15.84 -70.004,15.84 -0.293,0 -0.781,0.016 -1.398,0.031 -32.047,0.789 -55.899,-5.527 -68.961,-18.273 -7.551,-7.367 -11.379,-16.879 -11.379,-28.27 0,-15.664 8.836,-28.492 27.801,-40.375 16.957,-10.625 40.504,-19.523 65.445,-28.937 32.52,-12.285 69.394,-26.211 99.609,-47.035 34.649,-23.887 55.059,-53.098 62.403,-89.317 l 0.078,-0.324 v -0.086 l 0.097,-0.019 0.313,-0.071 111.133,-24.89 0.429,-0.098 0.137,-0.02 0.039,0.118 0.156,0.402 0.02,0.055 0.137,0.351 -0.352,-0.164 -0.605,-0.293 -0.352,-0.156 0.371,-0.117 c 1.719,-0.567 3.711,0.324 4.375,1.941 0.313,0.781 0.293,1.633 -0.078,2.414 -0.371,0.801 -1.074,1.426 -1.933,1.707 l -0.333,0.098 0.137,-0.301 0.313,-0.676 0.136,-0.3 0.137,0.3 0.02,0.059 0.195,0.461 0.059,0.137 -0.137,0.058 -0.449,0.203 -108.887,47.559 -0.039,0.019 -0.02,0.012 h -0.019 l -0.039,0.008 c -0.254,0.059 -0.449,0.227 -0.586,0.469 -0.176,0.285 -0.215,0.617 -0.137,0.898 0.176,0.539 0.801,0.852 1.445,0.703 l 0.039,-0.008 0.02,-0.011 h 0.039 l 120.84,-7.625 0.449,-0.032 0.137,-0.007 0.019,0.136 0.078,0.43 v 0.067 l 0.059,0.363 -0.293,-0.215 -0.566,-0.402 -0.293,-0.223 0.351,-0.051 c 1.817,-0.293 3.633,0.91 3.97,2.617 0.16,0.801 -0.02,1.633 -0.513,2.336 -0.527,0.742 -1.347,1.25 -2.246,1.387 l -0.351,0.059 0.195,-0.286 0.41,-0.605 0.195,-0.281 0.079,0.34 0.019,0.058 0.098,0.469 0.019,0.148 -0.136,0.039 -0.469,0.118 -116.504,29.902 -0.039,0.019 h -0.039 l -0.039,0.008 c -0.313,0.02 -0.586,0.168 -0.801,0.403 -0.176,0.214 -0.254,0.457 -0.215,0.711 0.039,0.507 0.567,1.054 1.25,0.996 l 0.039,-0.008 h 0.02 v 0.008 h 0.039 l 120.569,11.308 0.47,0.039 0.14,0.012 v 0.145 l -0.02,0.468 v 0.422 l -0.26,-0.254 -0.5,-0.527 -0.24,-0.254 h 0.35 c 0.92,0 1.82,0.379 2.48,1.023 0.61,0.606 0.94,1.387 0.94,2.208 z" /><path              id="path100"              style="fill:#a20641;fill-opacity:1;fill-rule:nonzero;stroke:none"              d="m 1370.96,581.551 c 12.73,0 23.1,-10.367 23.1,-23.106 0,-12.738 -10.37,-23.101 -23.1,-23.101 -12.74,0 -23.11,10.363 -23.11,23.101 0,12.739 10.37,23.106 23.11,23.106 z m 0.06,-42.75 c 10.62,0 18.63,8.574 18.63,19.644 0,11.071 -8.01,19.649 -18.63,19.649 -10.75,0 -18.75,-8.578 -18.75,-19.649 0,-11.07 8,-19.644 18.75,-19.644 z m -8.89,33.211 h 10.37 c 6.19,0 9.28,-2.496 9.28,-7.617 0,-4.352 -2.76,-7.485 -6.98,-7.485 l 7.68,-11.969 h -4.67 l -7.56,11.969 h -3.71 v -11.969 h -4.41 z m 4.41,-11.645 h 5.26 c 3.38,0 5.56,0.703 5.56,4.223 0,3.07 -2.75,3.965 -5.56,3.965 h -5.26 v -8.188" /></g></g></g></g></svg>